<svg width="50" height="48" viewBox="0 0 50 48" fill="none" xmlns="http://www.w3.org/2000/svg">
<path d="M30.0336 41.7044C30.757 41.2868 31.2828 40.5955 31.4954 39.7825C31.708 38.9695 31.59 38.1015 31.1673 37.3694L29.5737 34.6091C29.151 33.8771 28.4583 33.3409 27.6479 33.1185C26.8376 32.8961 25.976 33.0059 25.2526 33.4235C19.7978 36.5728 16.6105 31.0522 15.0168 28.2918C13.4231 25.5315 10.2358 20.0109 15.6906 16.8616C16.4139 16.444 16.9398 15.7526 17.1524 14.9396C17.365 14.1267 17.247 13.2587 16.8243 12.5266L15.2306 9.76628C14.808 9.0342 14.1153 8.49801 13.3049 8.27565C12.4946 8.0533 11.6329 8.163 10.9096 8.58063C4.09109 12.5173 1.59367 17.6396 9.56202 31.4412C17.5304 45.2428 23.2151 45.6411 30.0336 41.7044Z" stroke="#BFD2F8" stroke-width="2" stroke-linecap="round" stroke-linejoin="round"/>
<path d="M44.5491 30.3058C45.9978 24.7542 45.1906 18.8282 42.3047 13.8297C39.4188 8.83123 34.6904 5.16913 29.1582 3.64801M36.1986 28.0145C36.6302 26.3657 36.7338 24.6442 36.5034 22.9482C36.273 21.2522 35.7132 19.6151 34.8559 18.1303C33.9987 16.6454 32.8608 15.342 31.5072 14.2945C30.1536 13.247 28.6109 12.476 26.9673 12.0254M27.893 25.7065C28.1827 24.5956 28.021 23.4099 27.4436 22.4098C26.8662 21.4096 25.9201 20.6768 24.8133 20.3722" stroke="#BFD2F8" stroke-width="2" stroke-linecap="round" stroke-linejoin="round"/>
</svg>
